<?xml version="1.0" encoding="UTF-8"?>
<!DOCTYPE svg PUBLIC "-//W3C//DTD SVG 1.1//EN" "http://www.w3.org/Graphics/SVG/1.1/DTD/svg11.dtd">
<!-- Creator: CorelDRAW 2019 (64-Bit Evaluation Version) -->
<svg xmlns="http://www.w3.org/2000/svg" xml:space="preserve" width="652px" height="293px" version="1.1" style="shape-rendering:geometricPrecision; text-rendering:geometricPrecision; image-rendering:optimizeQuality; fill-rule:evenodd; clip-rule:evenodd"
viewBox="0 0 91.55 41.19"
 xmlns:xlink="http://www.w3.org/1999/xlink">
 <defs>
  <style type="text/css">
   <![CDATA[
    .fil4 {fill:white;fill-rule:nonzero}
    .fil3 {fill:url(#id0);fill-rule:nonzero}
    .fil1 {fill:url(#id1);fill-rule:nonzero}
    .fil2 {fill:url(#id2);fill-rule:nonzero}
    .fil0 {fill:url(#id3);fill-rule:nonzero}
   ]]>
  </style>
  <linearGradient id="id0" gradientUnits="userSpaceOnUse" x1="25.62" y1="29.92" x2="20.87" y2="46">
   <stop offset="0" style="stop-opacity:1; stop-color:#203F8D"/>
   <stop offset="0.0509804" style="stop-opacity:1; stop-color:#203F8D"/>
   <stop offset="0.309804" style="stop-opacity:1; stop-color:#2A51B6"/>
   <stop offset="0.929412" style="stop-opacity:1; stop-color:#3769EA"/>
   <stop offset="1" style="stop-opacity:1; stop-color:#3769EA"/>
  </linearGradient>
  <linearGradient id="id1" gradientUnits="userSpaceOnUse" x1="41.94" y1="30.99" x2="-5.71" y2="25.52">
   <stop offset="0" style="stop-opacity:1; stop-color:#396DF4"/>
   <stop offset="0.0588235" style="stop-opacity:1; stop-color:#396DF3"/>
   <stop offset="0.678431" style="stop-opacity:1; stop-color:#315ED3"/>
   <stop offset="0.988235" style="stop-opacity:1; stop-color:#162C63"/>
   <stop offset="1" style="stop-opacity:1; stop-color:#162C63"/>
  </linearGradient>
  <linearGradient id="id2" gradientUnits="userSpaceOnUse" x1="24.58" y1="16.46" x2="16.37" y2="26.85">
   <stop offset="0" style="stop-opacity:1; stop-color:#203F8D"/>
   <stop offset="0.0784314" style="stop-opacity:1; stop-color:#203F8D"/>
   <stop offset="0.309804" style="stop-opacity:1; stop-color:#2A51B6"/>
   <stop offset="0.929412" style="stop-opacity:1; stop-color:#3769EA"/>
   <stop offset="1" style="stop-opacity:1; stop-color:#3C73FC"/>
  </linearGradient>
  <linearGradient id="id3" gradientUnits="userSpaceOnUse" xlink:href="#id1" x1="40.31" y1="14" x2="-5.44" y2="9.29">
  </linearGradient>
 </defs>
 <g id="Layer_x0020_1">
  <metadata id="CorelCorpID_0Corel-Layer"/>
  <g id="_2004011914064">
   <g>
    <path class="fil0" d="M25.47 22.8c2.24,-1.2 4.19,-3.28 4.48,-5.48 0.51,-3.91 -1.99,-6.85 -5.19,-8.2 -3.82,-1.62 -1.27,-0.46 -15.87,-4.31 -7.02,-1.85 -7.47,-3.57 -7.31,-4.81 -1.9,1.24 -2.48,8.01 0.81,10.04 3.38,2.09 10.11,2.53 18.57,4.93 7.43,2.11 6.33,6.01 4.51,7.83z"/>
    <path class="fil1" d="M26.97 23.94c-0.64,-0.38 -1.35,-0.69 -2.1,-0.93 -10.58,-2.43 -11.51,-2.38 -15.02,-3.23 -9.57,-2.32 -8.42,-4.26 -8.66,-5.04 -1.76,1.88 -1.79,7.77 1.48,9.53 3.96,2.14 10.94,2.84 19.78,5.04 2.88,0.72 4.56,1.57 5.82,2.59 1.4,1.12 1.78,2.76 0.71,4.14 -0.94,1.21 -3.44,1.01 -6.22,0.62 -4.92,-0.68 -11.16,-2.11 -12.91,-2.6 -7.87,-2.18 -8.42,-4.26 -8.66,-5.04 -1.76,1.88 -1.79,7.77 1.48,9.53 2.59,1.4 5.05,2.2 10.38,2.53 3.91,0.23 11,0.45 14.48,-3.16 0.34,-0.35 3.04,-2.4 3.6,-5.93 0.52,-3.28 -1.28,-6.34 -4.16,-8.05z"/>
    <path class="fil2" d="M18.64 21.62c0,0 0,0 0,0 3.17,0.69 6.23,1.39 6.23,1.39 0.05,0.02 0.1,0.03 0.16,0.05 0.15,-0.08 0.29,-0.17 0.44,-0.26 1.82,-1.82 2.92,-5.72 -4.51,-7.83 -0.52,-0.15 -1.02,-0.28 -1.52,-0.42 2.08,0.85 5.03,5.42 -0.8,7.07z"/>
    <path class="fil3" d="M20.6 35.9c-0.15,0.12 -0.29,0.22 -0.44,0.32 0.89,0.17 1.76,0.32 2.6,0.44 2.78,0.39 5.28,0.59 6.22,-0.62 1.07,-1.38 0.69,-3.02 -0.71,-4.14 -2.31,-1.86 -5.31,-2.49 -8.35,-3.19 2.22,1.01 4.09,4.44 0.68,7.19z"/>
   </g>
   <path class="fil4" d="M47.44 26.04c0,1.31 -0.93,2.09 -2.5,2.09l-2.79 0 0 -4.26 2.74 0c1.55,0 2.55,0.83 2.55,2.17zm-0.31 -5.44c0,1.24 -0.85,1.96 -2.32,1.96l-2.66 0 0 -3.92 2.62 0c1.55,0 2.36,0.77 2.36,1.96zm1.89 5.59c0,-1.49 -1.07,-2.76 -2.39,-2.98 1.16,-0.38 2.11,-1.27 2.11,-2.8 0,-1.68 -1.28,-3.07 -3.83,-3.07l-4.34 0 0 12.1 4.51 0c2.5,0 3.94,-1.43 3.94,-3.25z"/>
   <path id="1" class="fil4" d="M59.64 19.93l-1.58 0 0 5.22c0,2.05 -1.09,3.05 -2.72,3.05 -1.6,0 -2.66,-0.98 -2.66,-2.91l0 -5.36 -1.56 0 0 5.57c0,2.72 1.72,4.07 3.91,4.07 1.26,0 2.42,-0.55 3.03,-1.54l0 1.41 1.58 0 0 -9.51z"/>
   <polygon id="2" class="fil4" points="65.92,27.63 62.94,19.93 61.18,19.93 65.02,29.33 63.15,33.91 64.78,33.91 70.5,19.93 68.87,19.93 "/>
   <path id="3" class="fil4" d="M72.93 18.38c0.59,0 1.06,-0.47 1.06,-1.07 0,-0.61 -0.47,-1.08 -1.06,-1.08 -0.59,0 -1.06,0.47 -1.06,1.08 0,0.6 0.47,1.07 1.06,1.07zm-0.8 1.55l0 11.54c0,0.83 -0.33,1.14 -1.19,1.14l-0.66 0 0 1.34 0.92 0c1.61,0 2.51,-0.73 2.51,-2.45l0 -11.57 -1.58 0z"/>
   <path id="4" class="fil4" d="M80.43 21.11c1.63,0 3.02,1.02 3,2.88l-6 0c0.17,-1.86 1.45,-2.88 3,-2.88zm4.44 5.39l-1.7 0c-0.35,1.03 -1.25,1.76 -2.67,1.76 -1.62,0 -2.97,-1.06 -3.09,-2.99l7.6 0c0.03,-0.33 0.05,-0.61 0.05,-0.95 0,-2.61 -1.8,-4.55 -4.56,-4.55 -2.78,0 -4.71,1.89 -4.71,4.89 0,3.02 2,4.93 4.71,4.93 2.36,0 3.88,-1.35 4.37,-3.09z"/>
   <path id="5" class="fil4" d="M87.49 26.83c0,1.91 0.95,2.61 2.64,2.61l1.42 0 0 -1.34 -1.16 0c-0.97,0 -1.32,-0.33 -1.32,-1.27l0 -5.6 2.48 0 0 -1.3 -2.48 0 0 -2.4 -1.58 0 0 2.4 -1.23 0 0 1.3 1.23 0 0 5.6z"/>
  </g>
 </g>
</svg>
