<?xml version="1.0" encoding="UTF-8"?>
<!DOCTYPE svg PUBLIC "-//W3C//DTD SVG 1.1//EN" "http://www.w3.org/Graphics/SVG/1.1/DTD/svg11.dtd">
<!-- Creator: CorelDRAW 2019 (64-Bit Evaluation Version) -->
<svg xmlns="http://www.w3.org/2000/svg" xml:space="preserve" width="652px" height="293px" version="1.1" style="shape-rendering:geometricPrecision; text-rendering:geometricPrecision; image-rendering:optimizeQuality; fill-rule:evenodd; clip-rule:evenodd"
viewBox="0 0 135.91 61.15"
 xmlns:xlink="http://www.w3.org/1999/xlink">
 <defs>
  <style type="text/css">
   <![CDATA[
    .fil4 {fill:#110E22;fill-rule:nonzero}
    .fil0 {fill:url(#id0);fill-rule:nonzero}
    .fil3 {fill:url(#id1);fill-rule:nonzero}
    .fil1 {fill:url(#id2);fill-rule:nonzero}
    .fil2 {fill:url(#id3);fill-rule:nonzero}
   ]]>
  </style>
  <linearGradient id="id0" gradientUnits="userSpaceOnUse" x1="59.84" y1="20.79" x2="-8.07" y2="13.79">
   <stop offset="0" style="stop-opacity:1; stop-color:#396DF4"/>
   <stop offset="0.0588235" style="stop-opacity:1; stop-color:#396DF3"/>
   <stop offset="0.678431" style="stop-opacity:1; stop-color:#315ED3"/>
   <stop offset="0.988235" style="stop-opacity:1; stop-color:#162C63"/>
   <stop offset="1" style="stop-opacity:1; stop-color:#162C63"/>
  </linearGradient>
  <linearGradient id="id1" gradientUnits="userSpaceOnUse" x1="38.03" y1="44.41" x2="30.98" y2="68.29">
   <stop offset="0" style="stop-opacity:1; stop-color:#203F8D"/>
   <stop offset="0.0509804" style="stop-opacity:1; stop-color:#203F8D"/>
   <stop offset="0.309804" style="stop-opacity:1; stop-color:#2A51B6"/>
   <stop offset="0.929412" style="stop-opacity:1; stop-color:#3769EA"/>
   <stop offset="1" style="stop-opacity:1; stop-color:#3769EA"/>
  </linearGradient>
  <linearGradient id="id2" gradientUnits="userSpaceOnUse" xlink:href="#id0" x1="62.26" y1="46" x2="-8.47" y2="37.89">
  </linearGradient>
  <linearGradient id="id3" gradientUnits="userSpaceOnUse" x1="36.49" y1="24.44" x2="24.3" y2="39.86">
   <stop offset="0" style="stop-opacity:1; stop-color:#203F8D"/>
   <stop offset="0.0784314" style="stop-opacity:1; stop-color:#203F8D"/>
   <stop offset="0.309804" style="stop-opacity:1; stop-color:#2A51B6"/>
   <stop offset="0.929412" style="stop-opacity:1; stop-color:#3769EA"/>
   <stop offset="1" style="stop-opacity:1; stop-color:#3C73FC"/>
  </linearGradient>
 </defs>
 <g id="Layer_x0020_1">
  <metadata id="CorelCorpID_0Corel-Layer"/>
  <g id="_2004103378720">
   <g>
    <path class="fil0" d="M37.81 33.84c3.32,-1.77 6.21,-4.87 6.64,-8.13 0.77,-5.8 -2.95,-10.16 -7.69,-12.18 -5.67,-2.4 -1.89,-0.68 -23.56,-6.39 -10.42,-2.74 -11.09,-5.3 -10.86,-7.14 -2.81,1.84 -3.68,11.89 1.2,14.91 5.02,3.1 15.01,3.75 27.57,7.31 11.04,3.14 9.41,8.92 6.7,11.62z"/>
    <path class="fil1" d="M40.04 35.55c-0.96,-0.57 -2,-1.04 -3.12,-1.39 -15.71,-3.6 -17.09,-3.53 -22.3,-4.79 -14.2,-3.46 -12.49,-6.33 -12.85,-7.48 -2.62,2.79 -2.67,11.52 2.19,14.14 5.88,3.18 16.24,4.22 29.37,7.49 4.27,1.06 6.77,2.33 8.64,3.83 2.07,1.67 2.64,4.11 1.05,6.15 -1.39,1.79 -5.11,1.5 -9.23,0.93 -7.3,-1.02 -16.57,-3.15 -19.17,-3.87 -11.68,-3.24 -12.49,-6.33 -12.85,-7.47 -2.62,2.79 -2.67,11.52 2.19,14.14 3.84,2.08 7.5,3.27 15.42,3.75 5.79,0.35 16.33,0.67 21.49,-4.69 0.5,-0.52 4.51,-3.56 5.34,-8.8 0.77,-4.87 -1.9,-9.41 -6.17,-11.94z"/>
    <path class="fil2" d="M27.68 32.1c0,0 -0.01,0 -0.01,0 4.71,1.02 9.25,2.06 9.25,2.06 0.08,0.02 0.15,0.05 0.23,0.08 0.22,-0.13 0.45,-0.26 0.66,-0.4 2.71,-2.7 4.34,-8.48 -6.7,-11.62 -0.76,-0.21 -1.51,-0.42 -2.26,-0.61 3.1,1.25 7.47,8.04 -1.17,10.49z"/>
    <path class="fil3" d="M30.57 53.3c-0.21,0.17 -0.42,0.32 -0.65,0.47 1.32,0.26 2.63,0.48 3.87,0.66 4.12,0.57 7.84,0.86 9.23,-0.93 1.59,-2.04 1.02,-4.48 -1.05,-6.15 -3.44,-2.76 -7.88,-3.69 -12.4,-4.73 3.3,1.5 6.07,6.59 1,10.68z"/>
   </g>
   <path class="fil4" d="M70.43 38.65c0,1.96 -1.39,3.12 -3.71,3.12l-4.15 0 0 -6.34 4.07 0c2.3,0 3.79,1.24 3.79,3.22zm-0.46 -8.06c0,1.83 -1.27,2.91 -3.46,2.91l-3.94 0 0 -5.82 3.89 0c2.3,0 3.51,1.13 3.51,2.91zm2.8 8.29c0,-2.21 -1.59,-4.09 -3.55,-4.43 1.73,-0.57 3.14,-1.88 3.14,-4.15 0,-2.49 -1.9,-4.56 -5.69,-4.56l-6.44 0 0 17.96 6.7 0c3.71,0 5.84,-2.11 5.84,-4.82z"/>
   <path id="1" class="fil4" d="M88.54 29.58l-2.35 0 0 7.76c0,3.04 -1.62,4.53 -4.04,4.53 -2.37,0 -3.94,-1.47 -3.94,-4.33l0 -7.96 -2.32 0 0 8.27c0,4.05 2.55,6.05 5.8,6.05 1.88,0 3.6,-0.82 4.5,-2.29l0 2.09 2.35 0 0 -14.12z"/>
   <polygon id="2" class="fil4" points="97.86,41.02 93.43,29.58 90.83,29.58 96.52,43.54 93.74,50.34 96.16,50.34 104.66,29.58 102.24,29.58 "/>
   <path id="3" class="fil4" d="M108.27 27.29c0.87,0 1.57,-0.69 1.57,-1.6 0,-0.9 -0.7,-1.59 -1.57,-1.59 -0.88,0 -1.57,0.69 -1.57,1.59 0,0.91 0.69,1.6 1.57,1.6zm-1.19 2.29l0 17.13c0,1.24 -0.49,1.7 -1.77,1.7l-0.98 0 0 1.99 1.36 0c2.4,0 3.74,-1.09 3.74,-3.64l0 -17.18 -2.35 0z"/>
   <path id="4" class="fil4" d="M119.4 31.33c2.42,0 4.48,1.52 4.45,4.28l-8.91 0c0.26,-2.76 2.16,-4.28 4.46,-4.28zm6.59 8.02l-2.52 0c-0.52,1.51 -1.86,2.6 -3.97,2.6 -2.4,0 -4.41,-1.57 -4.59,-4.43l11.29 0c0.05,-0.49 0.07,-0.91 0.07,-1.42 0,-3.86 -2.68,-6.75 -6.77,-6.75 -4.12,0 -6.98,2.81 -6.98,7.26 0,4.49 2.96,7.32 6.98,7.32 3.5,0 5.77,-2.01 6.49,-4.58z"/>
   <path id="5" class="fil4" d="M129.88 39.83c0,2.84 1.42,3.87 3.92,3.87l2.11 0 0 -1.98 -1.73 0c-1.44,0 -1.96,-0.49 -1.96,-1.89l0 -8.32 3.69 0 0 -1.93 -3.69 0 0 -3.55 -2.34 0 0 3.55 -1.83 0 0 1.93 1.83 0 0 8.32z"/>
  </g>
 </g>
</svg>
